<?xml version="1.0" encoding="utf-8"?>
<!-- Generator: Adobe Illustrator 28.1.0, SVG Export Plug-In . SVG Version: 6.00 Build 0)  -->
<svg version="1.1" id="Calque_1" xmlns="http://www.w3.org/2000/svg" xmlns:xlink="http://www.w3.org/1999/xlink" x="0px" y="0px"
	 viewBox="0 0 283.5 283.5" style="enable-background:new 0 0 283.5 283.5;" xml:space="preserve">
<style type="text/css">
	.st0{fill:#FFFFFF;}
</style>
<g>
	<g>
		<path class="st0" d="M50.2,114.6H23.5V16.4h26.6v98.2H50.2z"/>
		<path class="st0" d="M157.3,39.5l-23.6,13c-4.8-8.1-12.1-12.4-21.6-12.4c-13.6,0-23.7,10.4-23.7,25.4c0,16.8,11.6,25.4,23.8,25.4
			c9.3,0,16.8-4.2,22.1-12.3l21.9,15.3c-9.3,13.9-24.3,22.6-43.7,22.6c-30.4,0-51.8-21-51.8-50.9s21.5-50.9,51.8-50.9
			C131.7,14.6,148.8,23.8,157.3,39.5z"/>
		<path class="st0" d="M260.3,114.6h-25.9l-40.5-55.2v55.2h-26.6V16.4h25.9l40.4,55.2V16.4h26.6v98.2H260.3z"/>
	</g>
	<g>
		<path class="st0" d="M52.2,130.4l-7,3.9c-1.4-2.4-3.6-3.7-6.4-3.7c-4,0-7,3.1-7,7.5c0,5,3.5,7.5,7.1,7.5c2.8,0,5-1.3,6.6-3.7
			l6.5,4.5c-2.8,4.1-7.2,6.7-13,6.7c-9,0-15.4-6.2-15.4-15.1c0-8.9,6.4-15.1,15.4-15.1C44.6,123,49.7,125.7,52.2,130.4z"/>
		<path class="st0" d="M79.4,133.2c0,4.5-2.6,7.7-7.5,8.7l7.9,10.7h-9.3l-7-10.3H63v10.3h-7.9v-29.1h13
			C75.5,123.5,79.4,127.3,79.4,133.2z M63,130.6v5.2h5c2,0,3.4-0.8,3.4-2.6s-1.4-2.6-3.4-2.6L63,130.6L63,130.6z"/>
		<path class="st0" d="M105.6,152.7H82.8v-29.1h22.8v7H90.7v3.9h13.8v7H90.7v4.2h14.9V152.7z"/>
		<path class="st0" d="M138.7,152.7h-8.4l-1.9-5.6h-10.9l-1.9,5.6h-8.3l11-29.1h9.3L138.7,152.7z M120,140h6l-3-8.6L120,140z"/>
		<path class="st0" d="M166.2,130.4l-7,3.9c-1.4-2.4-3.6-3.7-6.4-3.7c-4,0-7,3.1-7,7.5c0,5,3.5,7.5,7.1,7.5c2.8,0,5-1.3,6.6-3.7
			l6.5,4.5c-2.8,4.1-7.2,6.7-13,6.7c-9,0-15.4-6.2-15.4-15.1c0-8.9,6.4-15.1,15.4-15.1C158.6,123,163.7,125.7,166.2,130.4z"/>
		<path class="st0" d="M192.3,130.8H184v21.9h-7.9v-21.9h-8.3v-7.3h24.5V130.8z"/>
		<path class="st0" d="M202.7,152.7h-7.9v-29.1h7.9V152.7z"/>
		<path class="st0" d="M224.8,152.7h-9.3l-10.6-29.1h8.4l7,20.9l7-20.9h8.3L224.8,152.7z"/>
		<path class="st0" d="M260.3,152.7h-22.8v-29.1h22.8v7h-14.9v3.9h13.8v7h-13.8v4.2h14.9V152.7z"/>
	</g>
	<g>
		<path class="st0" d="M38.5,160.4c8.9,0,12.9,3.7,12.9,9.6c0,3.2-1.8,5.7-4.4,7c2.9,1.1,5.1,3.9,5.1,7.2c0,5.9-3.9,9.6-12.7,9.6
			H23.5v-33.3h15V160.4z M32.6,167.7v5.5h5.7c2.5,0,3.8-0.9,3.8-2.8c0-1.8-1.3-2.8-3.7-2.8h-5.8V167.7z M32.6,180.6v5.7h6.3
			c2.6,0,3.9-1,3.9-2.9s-1.3-2.9-3.9-2.9L32.6,180.6L32.6,180.6z"/>
		<path class="st0" d="M84.8,180.1c0,9.1-5.2,14.2-14.7,14.2s-14.7-5.1-14.7-14.2v-19.7h9.1v19.4c0,3.8,2.2,5.8,5.7,5.8
			s5.7-2,5.7-5.8v-19.4H85v19.7H84.8z"/>
		<path class="st0" d="M113.3,170.7c-2.2-1.2-5.5-2.8-9.6-2.8c-2.4,0-4.3,0.7-4.3,2.2c0,1.9,3.4,2.1,6.8,2.7l1.1,0.2
			c6.9,1.3,10.4,4.6,10.4,9.7c0,8.4-7.1,11.5-14.2,11.5c-6,0-11.4-1.4-15.2-4.1l4.4-7.4c2.6,1.6,5.8,3.4,10.9,3.4
			c2.4,0,4.2-0.7,4.2-2.3c0-1.7-2.1-2-6.2-2.8l-1.3-0.2c-7.7-1.3-10.8-4.6-10.7-10.5c0.2-6.4,5.5-10.6,13.5-10.6
			c4.3,0,8.3,0.5,14,3.5L113.3,170.7z"/>
		<path class="st0" d="M130.4,193.7h-9v-33.3h9V193.7z"/>
		<path class="st0" d="M166.7,193.7h-8.8L144.2,175v18.7h-9v-33.3h8.8l13.7,18.7v-18.7h9V193.7z"/>
		<path class="st0" d="M197.4,193.7h-26v-33.3h26v8h-17v4.4h15.8v8h-15.8v4.8h17V193.7z"/>
		<path class="st0" d="M225.4,170.7c-2.2-1.2-5.5-2.8-9.6-2.8c-2.4,0-4.3,0.7-4.3,2.2c0,1.9,3.4,2.1,6.8,2.7l1.1,0.2
			c6.9,1.3,10.4,4.6,10.4,9.7c0,8.4-7.1,11.5-14.2,11.5c-6,0-11.4-1.4-15.2-4.1l4.4-7.4c2.6,1.6,5.8,3.4,10.9,3.4
			c2.4,0,4.2-0.7,4.2-2.3c0-1.7-2.1-2-6.2-2.8l-1.3-0.2c-7.6-1.3-10.8-4.6-10.7-10.5c0.2-6.4,5.5-10.6,13.5-10.6
			c4.3,0,8.3,0.5,14,3.5L225.4,170.7z"/>
		<path class="st0" d="M255.9,170.7c-2.2-1.2-5.5-2.8-9.6-2.8c-2.4,0-4.3,0.7-4.3,2.2c0,1.9,3.4,2.1,6.8,2.7l1.1,0.2
			c6.9,1.3,10.4,4.6,10.4,9.7c0,8.4-7.1,11.5-14.2,11.5c-6,0-11.4-1.4-15.2-4.1l4.4-7.4c2.6,1.6,5.8,3.4,10.9,3.4
			c2.4,0,4.2-0.7,4.2-2.3c0-1.7-2.1-2-6.2-2.8l-1.3-0.2c-7.7-1.3-10.8-4.6-10.7-10.5c0.2-6.4,5.5-10.6,13.5-10.6
			c4.3,0,8.3,0.5,14,3.5L255.9,170.7z"/>
	</g>
	<g>
		<path class="st0" d="M52.8,213.6c-2.6-1.4-6.4-3.2-11.2-3.2c-2.8,0-5,0.8-5,2.5c0,2.2,4,2.4,7.9,3.2l1.3,0.3
			c8,1.6,12.1,5.4,12.1,11.4c0,9.8-8.3,13.5-16.6,13.5c-7,0-13.3-1.7-17.8-4.8l5.2-8.6c3.1,1.9,6.8,4,12.7,4c2.8,0,4.9-0.8,4.9-2.7
			c0-2-2.4-2.4-7.2-3.2l-1.5-0.3c-8.9-1.5-12.7-5.4-12.5-12.3c0.2-7.4,6.4-12.4,15.8-12.4c5.1,0,9.7,0.5,16.4,4.1L52.8,213.6z"/>
		<path class="st0" d="M98.6,210.7l-9.4,5.2c-1.9-3.2-4.8-4.9-8.6-4.9c-5.4,0-9.4,4.1-9.4,10.1c0,6.6,4.6,10.1,9.4,10.1
			c3.7,0,6.7-1.7,8.8-4.9l8.7,6.1c-3.7,5.5-9.6,9-17.3,9c-12,0-20.5-8.3-20.5-20.2c0-11.8,8.5-20.2,20.5-20.2
			C88.5,200.8,95.2,204.5,98.6,210.7z"/>
		<path class="st0" d="M113,216h14.4v-14.4H138v38.9h-10.6v-14.8H113v14.8h-10.6v-38.9H113V216z"/>
		<path class="st0" d="M183.1,221c0,11.6-8.5,20.2-20.6,20.2c-12,0-20.6-8.6-20.6-20.2c0-11.6,8.5-20.2,20.6-20.2
			S183.1,209.4,183.1,221z M153,221c0,5.9,3.9,10.1,9.6,10.1s9.6-4.1,9.6-10.1c0-5.9-3.9-10.1-9.6-10.1S153,215.1,153,221z"/>
		<path class="st0" d="M226.9,221c0,11.6-8.5,20.2-20.6,20.2c-12,0-20.6-8.6-20.6-20.2c0-11.6,8.5-20.2,20.6-20.2
			S226.9,209.4,226.9,221z M196.8,221c0,5.9,3.9,10.1,9.6,10.1c5.7,0,9.6-4.1,9.6-10.1c0-5.9-3.9-10.1-9.6-10.1
			C200.7,211,196.8,215.1,196.8,221z"/>
		<path class="st0" d="M260.3,240.5H231v-38.9h10.6v29.2h18.7L260.3,240.5L260.3,240.5z"/>
	</g>
	<g>
		<path class="st0" d="M24.7,262.7v5.6h-1.2v-13.8h5.1c3,0,4.9,1.5,4.9,4.1s-1.8,4.1-4.9,4.1H24.7z M24.7,255.6v5.9h3.9
			c2.3,0,3.7-1,3.7-2.9c0-2-1.3-3-3.7-3H24.7z"/>
		<path class="st0" d="M47.2,268.3h-1.3l-1.7-4H37l-1.7,4H34l5.8-13.8h1.5L47.2,268.3z M37.5,263.1h6.2l-3.1-7.5L37.5,263.1z"/>
		<path class="st0" d="M54.9,254.5c3,0,4.8,1.4,4.8,3.8s-1.8,3.8-4.8,3.8h-0.5l5.2,6.1h-1.5l-5.1-6.1h-2.1v6.1h-1.2v-13.8h5.2V254.5
			z M50.8,255.6v5.4h4.1c2.3,0,3.5-1,3.5-2.7c0-1.8-1.3-2.7-3.5-2.7L50.8,255.6L50.8,255.6z"/>
		<path class="st0" d="M64.1,268.3h-1.2v-13.8h1.2V268.3z"/>
		<path class="st0" d="M77.2,256.9c-1.1-0.8-2.5-1.3-4.3-1.3c-2.2,0-3.8,1-3.8,2.7c0,1.4,1,2.2,3.4,2.5L74,261
			c2.5,0.3,4.2,1.2,4.2,3.5c0,2.7-2.4,4-5.4,4c-2.1,0-4.1-0.8-5.3-1.7l0.7-1c1,0.8,2.8,1.5,4.7,1.5c2.3,0,4.2-0.9,4.2-2.8
			c0-1.5-1.2-2.2-3.5-2.5l-1.6-0.2c-2.5-0.3-4.1-1.4-4.1-3.5c0-2.5,2.3-4,5.1-4c2.1,0,3.7,0.7,4.9,1.5L77.2,256.9z"/>
		<path class="st0" d="M90.4,261.4c0,0.8-0.7,1.4-1.4,1.4c-0.8,0-1.4-0.7-1.4-1.4c0-0.8,0.6-1.4,1.4-1.4
			C89.7,260,90.4,260.6,90.4,261.4z"/>
		<path class="st0" d="M111.9,268.3h-1.1l-9-11.7v11.7h-1.2v-13.8h1.1l9,11.7v-11.7h1.2V268.3z"/>
		<path class="st0" d="M127.4,268.3h-1.3l-1.7-4h-7.2l-1.7,4h-1.3l5.8-13.8h1.5L127.4,268.3z M117.8,263.1h6.2l-3.1-7.5L117.8,263.1
			z"/>
		<path class="st0" d="M141.2,268.3h-1.1l-9-11.7v11.7h-1.2v-13.8h1.1l9,11.7v-11.7h1.2V268.3z"/>
		<path class="st0" d="M157.2,257.2l-1,0.7c-1-1.4-2.6-2.3-4.6-2.3c-3.3,0-5.8,2.4-5.8,5.9s2.5,5.9,5.8,5.9c1.9,0,3.6-0.9,4.6-2.3
			l1,0.7c-1.1,1.7-3.2,2.8-5.5,2.8c-4,0-7.1-2.9-7.1-7.1c0-4.1,3-7.1,7.1-7.1C154,254.4,156.1,255.4,157.2,257.2z"/>
		<path class="st0" d="M165.1,262.4v5.9h-1.2v-5.9l-5.5-7.9h1.4l4.7,6.8l4.7-6.8h1.4L165.1,262.4z"/>
		<path class="st0" d="M181.3,261.4c0,0.8-0.7,1.4-1.4,1.4c-0.8,0-1.4-0.7-1.4-1.4c0-0.8,0.6-1.4,1.4-1.4S181.3,260.6,181.3,261.4z"
			/>
		<path class="st0" d="M196.8,254.5c2.9,0,4.9,1,4.9,3.6c0,1.7-0.9,2.7-2.4,3.1c1.6,0.4,2.7,1.5,2.7,3.3c0,2.6-1.9,3.8-4.9,3.8h-5.6
			v-13.8L196.8,254.5L196.8,254.5z M192.7,255.6v5.1h4.1c2.1,0,3.7-0.6,3.7-2.5s-1.6-2.5-3.7-2.5h-4.1V255.6z M192.7,261.8v5.3h4.3
			c2.2,0,3.7-0.7,3.7-2.7s-1.5-2.7-3.7-2.7h-4.3V261.8z"/>
		<path class="st0" d="M214.8,268.3h-9.5v-13.8h9.4v1.1h-8.2v5.2h8v1.1h-8v5.3h8.3V268.3z"/>
		<path class="st0" d="M223.8,254.5c3,0,4.8,1.4,4.8,3.8s-1.8,3.8-4.8,3.8h-0.5l5.2,6.1H227l-5.1-6.1h-2.1v6.1h-1.2v-13.8h5.2V254.5
			z M219.7,255.6v5.4h4.1c2.3,0,3.5-1,3.5-2.7c0-1.8-1.3-2.7-3.5-2.7L219.7,255.6L219.7,255.6z"/>
		<path class="st0" d="M241.1,268.3h-9.4v-13.8h1.2v12.7h8.2V268.3z"/>
		<path class="st0" d="M244.8,268.3h-1.2v-13.8h1.2V268.3z"/>
		<path class="st0" d="M260.3,268.3h-1.1l-9-11.7v11.7H249v-13.8h1.1l9,11.7v-11.7h1.2V268.3z"/>
	</g>
</g>
</svg>
